<svg width="365" height="150" viewBox="0 0 365 150" fill="none" xmlns="http://www.w3.org/2000/svg">
<path opacity="0.2" d="M59.7189 62.988C30.1852 62.1182 2.10059 102.967 -5.5 120V151H386.5L373 16.4999C343 23.9999 311 8.99988 301.852 8.62636C281.222 8.62636 250.458 51.3902 236.704 73.8594C225.412 93.8641 211.007 98.1405 205.216 97.7781C178.288 98.6479 157.803 53.9272 150.926 31.4582C144.846 6.23437 138 1.01611 134.639 1.01614C129 0.999878 120.524 8.40921 111.837 33.6326C103.151 58.856 89.3974 65.8867 83.6065 66.2491C75.5067 66.7561 65.8718 62.9878 59.7189 62.988Z" fill="url(#paint0_linear_1152_446)"/>
<path d="M-5.5 120C2.10059 102.967 30.1852 62.1182 59.7189 62.988C65.8718 62.9878 75.5067 66.756 83.6065 66.2491C89.3974 65.8867 103.151 58.856 111.837 33.6326C120.524 8.40921 129 0.999878 134.639 1.01614C138 1.01611 144.846 6.23437 150.926 31.4582C157.803 53.9272 178.288 98.6479 205.216 97.7781C211.007 98.1405 225.412 93.8641 236.704 73.8594C250.458 51.3902 281.222 8.62636 301.852 8.62636C311 8.99988 343 23.9999 373 16.4999" stroke="#109CF1" stroke-width="2" stroke-linejoin="round"/>
<circle cx="273" cy="26" r="4" fill="white" stroke="#109CF1" stroke-width="2"/>
<defs>
<linearGradient id="paint0_linear_1152_446" x1="190.5" y1="1.01611" x2="190" y2="151" gradientUnits="userSpaceOnUse">
<stop stop-color="#109CF1"/>
<stop offset="1" stop-color="#109CF1" stop-opacity="0"/>
</linearGradient>
</defs>
</svg>
