<svg width="365" height="177" viewBox="0 0 365 177" fill="none" xmlns="http://www.w3.org/2000/svg">
<line x1="273" y1="1" x2="273" y2="176" stroke="#C2CFE0"/>
<line y1="176.5" x2="365" y2="176.5" stroke="#D3D8DD" stroke-miterlimit="16" stroke-dasharray="8 8"/>
<line y1="132.5" x2="365" y2="132.5" stroke="#D3D8DD" stroke-miterlimit="16" stroke-dasharray="8 8"/>
<line y1="88.5" x2="365" y2="88.5" stroke="#D3D8DD" stroke-miterlimit="16" stroke-dasharray="8 8"/>
<line y1="44.5" x2="365" y2="44.5" stroke="#D3D8DD" stroke-miterlimit="16" stroke-dasharray="8 8"/>
<line y1="0.5" x2="365" y2="0.5" stroke="#D3D8DD" stroke-miterlimit="16" stroke-dasharray="8 8"/>
<mask id="mask0_0_1" style="mask-type:alpha" maskUnits="userSpaceOnUse" x="0" y="1" width="365" height="176">
<rect y="1" width="365" height="176" fill="#C4C4C4"/>
</mask>
<g mask="url(#mask0_0_1)">
<path opacity="0.2" d="M59.7189 89.988C30.1852 89.1182 2.10059 129.967 -5.5 147V178H386.5L373 43.4999C343 50.9999 311 35.9999 301.852 35.6264C281.222 35.6264 250.458 78.3902 236.704 100.859C225.412 120.864 211.007 125.141 205.216 124.778C178.288 125.648 157.803 80.9272 150.926 58.4582C144.846 33.2344 138 28.0161 134.639 28.0161C129 27.9999 120.524 35.4092 111.837 60.6326C103.151 85.856 89.3974 92.8867 83.6065 93.2491C75.5067 93.7561 65.8718 89.9878 59.7189 89.988Z" fill="url(#paint0_linear_0_1)"/>
<path d="M-5.5 147C2.10059 129.967 30.1852 89.1182 59.7189 89.988C65.8718 89.9878 75.5067 93.756 83.6065 93.2491C89.3974 92.8867 103.151 85.856 111.837 60.6326C120.524 35.4092 129 27.9999 134.639 28.0161C138 28.0161 144.846 33.2344 150.926 58.4582C157.803 80.9272 178.288 125.648 205.216 124.778C211.007 125.141 225.412 120.864 236.704 100.859C250.458 78.3902 281.222 35.6264 301.852 35.6264C311 35.9999 343 50.9999 373 43.4999" stroke="#109CF1" stroke-width="2" stroke-linejoin="round"/>
<circle cx="273" cy="53" r="4" fill="white" stroke="#109CF1" stroke-width="2"/>
</g>
<rect opacity="0.6" x="286" y="41" width="46" height="24" rx="12" fill="#192A3E"/>
<path d="M300.374 50.411V49.234H302.86V57H301.54V50.411H300.374ZM304.099 55.328V54.272L307.96 49.168H309.302V54.228H310.391V55.328H309.302V57H308.037V55.328H304.099ZM308.125 50.664L305.397 54.228H308.125V50.664ZM315.635 51.324C315.503 50.4587 315.052 50.026 314.282 50.026C313.725 50.026 313.307 50.2497 313.028 50.697C312.749 51.137 312.61 51.83 312.61 52.776L312.621 53.15C312.731 52.754 312.969 52.4387 313.336 52.204C313.703 51.9693 314.135 51.852 314.634 51.852C315.397 51.852 315.994 52.0793 316.427 52.534C316.86 52.9887 317.076 53.6303 317.076 54.459C317.076 54.9577 316.977 55.405 316.779 55.801C316.581 56.1897 316.284 56.5013 315.888 56.736C315.492 56.9633 315.004 57.077 314.425 57.077C313.303 57.077 312.533 56.7287 312.115 56.032C311.697 55.3353 311.488 54.3783 311.488 53.161C311.488 51.7677 311.712 50.7263 312.159 50.037C312.606 49.3477 313.34 49.003 314.359 49.003C315.122 49.003 315.705 49.2193 316.108 49.652C316.519 50.0847 316.757 50.642 316.823 51.324H315.635ZM312.731 54.316C312.731 54.7927 312.87 55.1923 313.149 55.515C313.428 55.8303 313.838 55.988 314.381 55.988C314.843 55.988 315.21 55.8523 315.481 55.581C315.76 55.3097 315.899 54.932 315.899 54.448C315.899 53.9273 315.76 53.5277 315.481 53.249C315.202 52.9703 314.825 52.831 314.348 52.831C313.915 52.831 313.538 52.9593 313.215 53.216C312.892 53.4727 312.731 53.8393 312.731 54.316Z" fill="white"/>
<defs>
<linearGradient id="paint0_linear_0_1" x1="190.5" y1="28.0161" x2="190" y2="178" gradientUnits="userSpaceOnUse">
<stop stop-color="#109CF1"/>
<stop offset="1" stop-color="#109CF1" stop-opacity="0"/>
</linearGradient>
</defs>
</svg>
